<svg width="164" height="36" viewBox="0 0 164 36" fill="none" xmlns="http://www.w3.org/2000/svg">
<path d="M37.7012 8.6625H46.5842C48.4742 8.6625 50.0132 9.1485 51.2012 10.1205C52.3892 11.0745 52.9832 12.3165 52.9832 13.8465C52.9832 14.6745 52.7762 15.4305 52.3622 16.1145C51.9482 16.7985 51.3812 17.3655 50.6612 17.8155C51.5612 18.2475 52.2812 18.8415 52.8212 19.5975C53.3612 20.3355 53.6312 21.1635 53.6312 22.0815C53.6312 23.7195 53.0192 25.0425 51.7952 26.0505C50.5892 27.0585 48.9962 27.5625 47.0162 27.5625H37.7012V8.6625ZM46.3412 11.9025H41.6162V16.3845H46.3412C47.1692 16.3845 47.8352 16.1865 48.3392 15.7905C48.8432 15.3765 49.0952 14.8275 49.0952 14.1435C49.0952 13.4595 48.8432 12.9195 48.3392 12.5235C47.8352 12.1095 47.1692 11.9025 46.3412 11.9025ZM46.7192 24.3225C47.6192 24.3225 48.3392 24.1065 48.8792 23.6745C49.4192 23.2245 49.6892 22.6215 49.6892 21.8655C49.6892 21.1455 49.4192 20.5605 48.8792 20.1105C48.3392 19.6605 47.6192 19.4355 46.7192 19.4355H41.6162V24.3225H46.7192ZM68.7354 25.8075C67.8714 26.5095 66.9804 27.0225 66.0624 27.3465C65.1624 27.6705 64.1544 27.8325 63.0384 27.8325C61.9764 27.8325 60.9774 27.6435 60.0414 27.2655C59.1234 26.8875 58.3224 26.3745 57.6384 25.7265C56.9724 25.0785 56.4414 24.3135 56.0451 23.4315C55.6671 22.5315 55.4781 21.5685 55.4781 20.5425C55.4781 19.5345 55.6581 18.5895 56.0181 17.7075C56.3964 16.8075 56.9094 16.0335 57.5574 15.3855C58.2054 14.7195 58.9704 14.1975 59.8524 13.8195C60.7524 13.4415 61.7064 13.2525 62.7144 13.2525C63.7044 13.2525 64.6224 13.4505 65.4684 13.8465C66.3324 14.2245 67.0704 14.7465 67.6824 15.4125C68.3124 16.0785 68.7984 16.8795 69.1404 17.8155C69.5004 18.7335 69.6804 19.7325 69.6804 20.8125V21.7845H59.2044C59.4564 22.6665 59.9424 23.3775 60.6624 23.9175C61.3824 24.4575 62.2284 24.7275 63.2004 24.7275C63.8124 24.7275 64.3884 24.6285 64.9284 24.4305C65.4684 24.2325 65.9274 23.9535 66.3054 23.5935L68.7354 25.8075ZM62.6334 16.3035C61.7874 16.3035 61.0584 16.5645 60.4464 17.0865C59.8344 17.5905 59.4114 18.2745 59.1774 19.1385H66.0624C65.8284 18.3105 65.3964 17.6355 64.7664 17.1135C64.1544 16.5735 63.4434 16.3035 62.6334 16.3035ZM75.6457 7.8525V27.5625H71.9467V8.6625L75.6457 7.8525ZM80.3741 11.8215C79.7981 11.8215 79.3031 11.6145 78.8891 11.2005C78.4751 10.7865 78.2681 10.2915 78.2681 9.7155C78.2681 9.1395 78.4751 8.6445 78.8891 8.2305C79.3031 7.8165 79.7981 7.6095 80.3741 7.6095C80.9501 7.6095 81.4451 7.8165 81.8591 8.2305C82.2731 8.6445 82.4801 9.1395 82.4801 9.7155C82.4801 10.2915 82.2731 10.7865 81.8591 11.2005C81.4451 11.6145 80.9501 11.8215 80.3741 11.8215ZM82.2371 13.4955V27.5625H78.5381V13.4955H82.2371ZM104.138 18.1395C104.138 19.5255 103.895 20.8215 103.409 22.0275C102.941 23.2155 102.284 24.2415 101.438 25.1055C100.61 25.9515 99.611 26.6265 98.441 27.1305C97.271 27.6165 96.011 27.8595 94.661 27.8595C93.257 27.8595 91.943 27.6075 90.719 27.1035C89.495 26.5995 88.433 25.9155 87.533 25.0515C86.651 24.1695 85.949 23.1345 85.427 21.9465C84.905 20.7585 84.644 19.4805 84.644 18.1125C84.644 16.7445 84.896 15.4665 85.4 14.2785C85.922 13.0905 86.624 12.0645 87.506 11.2005C88.406 10.3185 89.468 9.6255 90.692 9.1215C91.916 8.6175 93.221 8.3655 94.607 8.3655C96.173 8.3655 97.649 8.6805 99.035 9.3105C100.421 9.9405 101.564 10.8045 102.464 11.9025L99.737 14.4135C99.071 13.6215 98.297 13.0185 97.415 12.6045C96.551 12.1725 95.615 11.9565 94.607 11.9565C93.761 11.9565 92.969 12.1185 92.231 12.4425C91.511 12.7485 90.881 13.1805 90.341 13.7385C89.819 14.2785 89.405 14.9265 89.099 15.6825C88.811 16.4205 88.667 17.2305 88.667 18.1125C88.667 18.9945 88.82 19.8135 89.126 20.5695C89.432 21.3255 89.855 21.9825 90.395 22.5405C90.935 23.0805 91.574 23.5125 92.312 23.8365C93.068 24.1425 93.869 24.2955 94.715 24.2955C96.047 24.2955 97.19 23.9265 98.144 23.1885C99.116 22.4505 99.719 21.5055 99.953 20.3535H94.364V16.9515H104.138V18.1395ZM106.566 27.5625V13.4955H110.265V15.0345C110.715 14.4225 111.255 13.9635 111.885 13.6575C112.533 13.3335 113.244 13.1715 114.018 13.1715C114.378 13.1895 114.675 13.2255 114.909 13.2795C115.161 13.3155 115.377 13.3875 115.557 13.4955V16.7355C115.287 16.6095 114.99 16.5195 114.666 16.4655C114.342 16.3935 114.009 16.3575 113.667 16.3575C112.947 16.3575 112.281 16.5375 111.669 16.8975C111.075 17.2575 110.607 17.7795 110.265 18.4635V27.5625H106.566ZM116.228 20.5425C116.228 19.5165 116.417 18.5625 116.795 17.6805C117.191 16.7805 117.722 16.0065 118.388 15.3585C119.072 14.6925 119.873 14.1705 120.791 13.7925C121.709 13.4145 122.69 13.2255 123.734 13.2255C124.778 13.2255 125.759 13.4145 126.677 13.7925C127.595 14.1705 128.387 14.6925 129.053 15.3585C129.737 16.0065 130.268 16.7805 130.646 17.6805C131.042 18.5625 131.24 19.5165 131.24 20.5425C131.24 21.5685 131.042 22.5315 130.646 23.4315C130.268 24.3135 129.737 25.0785 129.053 25.7265C128.387 26.3745 127.595 26.8875 126.677 27.2655C125.759 27.6435 124.778 27.8325 123.734 27.8325C122.69 27.8325 121.709 27.6435 120.791 27.2655C119.873 26.8875 119.072 26.3745 118.388 25.7265C117.722 25.0785 117.191 24.3135 116.795 23.4315C116.417 22.5315 116.228 21.5685 116.228 20.5425ZM123.734 24.6195C124.814 24.6195 125.732 24.2235 126.488 23.4315C127.244 22.6395 127.622 21.6765 127.622 20.5425C127.622 19.3905 127.244 18.4185 126.488 17.6265C125.732 16.8345 124.814 16.4385 123.734 16.4385C122.654 16.4385 121.736 16.8345 120.98 17.6265C120.224 18.4185 119.846 19.3905 119.846 20.5425C119.846 21.6765 120.224 22.6395 120.98 23.4315C121.736 24.2235 122.654 24.6195 123.734 24.6195ZM132.326 25.8885L134.162 23.4315C134.99 23.9715 135.773 24.3765 136.511 24.6465C137.249 24.8985 137.987 25.0245 138.725 25.0245C139.553 25.0245 140.21 24.8895 140.696 24.6195C141.2 24.3495 141.452 23.9895 141.452 23.5395C141.452 23.1795 141.308 22.8915 141.02 22.6755C140.75 22.4595 140.309 22.3065 139.697 22.2165L136.997 21.8115C135.611 21.5955 134.549 21.1455 133.811 20.4615C133.091 19.7775 132.731 18.8685 132.731 17.7345C132.731 16.3845 133.262 15.3045 134.324 14.4945C135.386 13.6845 136.808 13.2795 138.59 13.2795C139.616 13.2795 140.615 13.4325 141.587 13.7385C142.559 14.0265 143.486 14.4585 144.368 15.0345L142.586 17.4105C141.812 16.9605 141.074 16.6275 140.372 16.4115C139.67 16.1775 138.959 16.0605 138.239 16.0605C137.573 16.0605 137.033 16.1865 136.619 16.4385C136.223 16.6905 136.025 17.0235 136.025 17.4375C136.025 17.8155 136.169 18.1125 136.457 18.3285C136.763 18.5265 137.258 18.6705 137.942 18.7605L140.642 19.1655C142.01 19.3635 143.063 19.8135 143.801 20.5155C144.557 21.2175 144.935 22.1085 144.935 23.1885C144.935 23.8545 144.773 24.4755 144.449 25.0515C144.143 25.6095 143.72 26.0955 143.18 26.5095C142.64 26.9235 141.992 27.2475 141.236 27.4815C140.48 27.7155 139.661 27.8325 138.779 27.8325C137.501 27.8325 136.304 27.6705 135.188 27.3465C134.072 27.0045 133.118 26.5185 132.326 25.8885ZM148.613 11.8215C148.037 11.8215 147.542 11.6145 147.128 11.2005C146.714 10.7865 146.507 10.2915 146.507 9.7155C146.507 9.1395 146.714 8.6445 147.128 8.2305C147.542 7.8165 148.037 7.6095 148.613 7.6095C149.189 7.6095 149.684 7.8165 150.098 8.2305C150.512 8.6445 150.719 9.1395 150.719 9.7155C150.719 10.2915 150.512 10.7865 150.098 11.2005C149.684 11.6145 149.189 11.8215 148.613 11.8215ZM150.476 13.4955V27.5625H146.777V13.4955H150.476ZM153.369 27.5625V13.4955H157.068V15.0345C157.518 14.4225 158.058 13.9635 158.688 13.6575C159.336 13.3335 160.047 13.1715 160.821 13.1715C161.181 13.1895 161.478 13.2255 161.712 13.2795C161.964 13.3155 162.18 13.3875 162.36 13.4955V16.7355C162.09 16.6095 161.793 16.5195 161.469 16.4655C161.145 16.3935 160.812 16.3575 160.47 16.3575C159.75 16.3575 159.084 16.5375 158.472 16.8975C157.878 17.2575 157.41 17.7795 157.068 18.4635V27.5625H153.369Z" fill="black"/>
<path d="M20.0992 15.761C20.0992 21.6696 13.5213 26.4595 13.5213 26.4595C13.5213 26.4595 6.94336 21.6696 6.94336 15.761C6.94336 9.85236 13.5213 5.0625 13.5213 5.0625C13.5213 5.0625 20.0992 9.85236 20.0992 15.761Z" fill="#14635C"/>
<path d="M25.5163 25.5051C23.2639 28.0401 18.6311 27.5181 18.6311 27.5181C18.6311 27.5181 17.6501 22.886 19.9025 20.351C22.1549 17.816 26.7877 18.338 26.7877 18.338C26.7877 18.338 27.7687 22.9701 25.5163 25.5051Z" fill="#14635C"/>
<path d="M1.48402 25.5051C3.73642 28.0401 8.36927 27.5181 8.36927 27.5181C8.36927 27.5181 9.35021 22.886 7.09785 20.351C4.84543 17.816 0.212606 18.338 0.212606 18.338C0.212606 18.338 -0.76837 22.9701 1.48402 25.5051Z" fill="#14635C"/>
</svg>
